<svg id="Layer_1" data-name="Layer 1" xmlns="http://www.w3.org/2000/svg" viewBox="0 0 600 600"><defs><style>.cls-1{fill:#fed208;}.cls-10,.cls-2{fill:#010101;}.cls-11,.cls-12,.cls-2,.cls-5,.cls-6{isolation:isolate;}.cls-2,.cls-9{opacity:0.08;}.cls-3{fill:#f4a28c;}.cls-11,.cls-12,.cls-4{fill:#7cd2ee;}.cls-5,.cls-8{fill:#fff;}.cls-5{opacity:0.46;}.cls-6{fill:#cf8172;opacity:0.31;}.cls-7{fill:#23295b;}.cls-11{opacity:0.58;}.cls-12{opacity:0.73;}.cls-13{font-size:160px;fill:#ed1c24;font-family:AmaticSC-Bold, Amatic SC;font-weight:700;}.cls-14{fill:#231f20;}</style></defs><path class="cls-1" d="M348.57,437.63v18.08c0,8.2-22.86,14.76-51,14.76s-51-6.73-51-14.92V437.47Z"/><path class="cls-1" d="M348.54,459.45v18.08c0,8.2-22.87,14.76-51,14.76s-51-6.73-51-14.92V459.28Z"/><path class="cls-2" d="M348.54,459.45v18.08c0,8.2-22.87,14.76-51,14.76s-51-6.73-51-14.92V459.28Z"/><ellipse class="cls-1" cx="297.04" cy="458.79" rx="14.7" ry="50.53" transform="translate(-162.26 755.03) rotate(-89.9)"/><path class="cls-2" d="M348.57,437.63v18.08c0,8.2-22.86,14.76-51,14.76s-51-6.73-51-14.92V437.47Z"/><path class="cls-1" d="M344.91,416v18.09c0,8.19-22.87,14.76-51,14.76s-51-6.73-51-14.92V415.88Z"/><path class="cls-1" d="M348.64,394.25v18.09c0,8.19-22.85,14.76-51,14.76s-51-6.73-51-14.92V394.11Z"/><ellipse class="cls-1" cx="297.09" cy="437.18" rx="14.7" ry="50.53" transform="translate(-140.61 733.51) rotate(-89.9)"/><path class="cls-2" d="M344.91,416v18.09c0,8.19-22.87,14.76-51,14.76s-51-6.73-51-14.92V415.88Z"/><ellipse class="cls-1" cx="293.44" cy="415.77" rx="14.7" ry="50.53" transform="translate(-122.85 708.48) rotate(-89.9)"/><path class="cls-2" d="M348.64,394.25v18.09c0,8.19-22.85,14.76-51,14.76s-51-6.73-51-14.92V394.11Z"/><ellipse class="cls-1" cx="297.64" cy="394.19" rx="14.7" ry="51.02" transform="translate(-97.08 691.14) rotate(-89.9)"/><path class="cls-1" d="M467.05,434v20.24c0,9.17-25.6,16.56-57.11,16.51s-57.08-7.53-57.06-16.7V433.79Z"/><path class="cls-1" d="M467,458.37v20.24c0,9.18-25.58,16.56-57.12,16.52s-57.07-7.53-57.06-16.71V458.18Z"/><path class="cls-2" d="M467,458.37v20.24c0,9.18-25.58,16.56-57.12,16.52s-57.07-7.53-57.06-16.71V458.18Z"/><ellipse class="cls-1" cx="409.38" cy="457.62" rx="16.46" ry="56.56" transform="translate(-48.96 866.2) rotate(-89.9)"/><path class="cls-2" d="M467.05,434v20.24c0,9.17-25.6,16.56-57.11,16.51s-57.08-7.53-57.06-16.7V433.79Z"/><path class="cls-1" d="M462.93,409.78V430c0,9.19-25.58,16.57-57.11,16.52s-57.08-7.52-57.06-16.71V409.59Z"/><path class="cls-1" d="M467.13,385.41v20.24c0,9.17-25.59,16.57-57.12,16.51s-57.07-7.53-57.06-16.7V385.22Z"/><ellipse class="cls-1" cx="409.42" cy="433.46" rx="16.46" ry="56.56" transform="translate(-24.75 842.12) rotate(-89.9)"/><path class="cls-2" d="M462.93,409.78V430c0,9.19-25.58,16.57-57.11,16.52s-57.08-7.52-57.06-16.71V409.59Z"/><ellipse class="cls-1" cx="405.36" cy="409.48" rx="16.46" ry="56.56" transform="translate(-4.83 814.12) rotate(-89.9)"/><path class="cls-2" d="M467.13,385.41v20.24c0,9.17-25.59,16.57-57.12,16.51s-57.07-7.53-57.06-16.7V385.22Z"/><ellipse class="cls-1" cx="410.04" cy="385.32" rx="16.46" ry="57.1" transform="translate(24.01 794.69) rotate(-89.9)"/><path class="cls-3" d="M403.85,225.71s6.68-12.71,8-11.81a3.07,3.07,0,0,1,1,2.82s3.81-6.07,6.72-3.31-1.24,11.35-8,14.58Z"/><path class="cls-4" d="M310.94,263.88S372.45,258,403.15,222l12.31,5.65s-13.24,24-30.55,40.54c-31.53,30.15-67.33,33.72-67.33,33.72Z"/><path class="cls-5" d="M310.94,263.88S372.45,258,403.15,222l12.31,5.65s-13.24,24-30.55,40.54c-31.53,30.15-67.33,33.72-67.33,33.72Z"/><path class="cls-3" d="M162.61,222.81s-3.64-7.38-4.93-6.45a3.1,3.1,0,0,0-1,2.82s-3.79-6.07-6.7-3.31,1.23,11.34,7.93,14.52Z"/><path class="cls-3" d="M311.64,230.28a45.31,45.31,0,0,1,1.63,12,3.64,3.64,0,0,1-3.88,3.4h0a8.1,8.1,0,0,1-7.39-4.83l-3.3-5.9a6.53,6.53,0,0,1,1.56-7.38C303.72,223.93,310.67,225.94,311.64,230.28Z"/><polygon class="cls-3" points="300.07 236.47 294.34 259.7 307.36 261.95 306.35 244.6 300.07 236.47"/><path class="cls-3" d="M312.57,234.79l2.53,2.39a1.18,1.18,0,0,1,0,1.67,1.42,1.42,0,0,1-.41.28l-2.66,1Z"/><path class="cls-6" d="M306.37,245.09s-4.42-2.05-5.66-3.87c0,0,.25,9.55,6.17,12.34Z"/><path class="cls-3" d="M304.38,236.85s-.57-2.74-2.61-2.15-1.24,4.59,1.65,4.43Z"/><path class="cls-7" d="M295.94,233.4l1.47,2.63s1.88,6.73,6.38,10.24,10.82,2.76,11.37-2c.62-5.44-3-4.15-7.93-4.43s-4.13-6.77-4.13-6.77a5.61,5.61,0,0,0,4.62-2.42l2.86-1.48a5.06,5.06,0,0,0,2.24-6.8,5,5,0,0,0-.41-.67,6.8,6.8,0,0,0-4.29-2.95C303.07,218,291.15,225.56,295.94,233.4Z"/><path class="cls-3" d="M300.17,234.06s-3.54-2.09-4.87.73,2.64,5,5.33,3.32A5.91,5.91,0,0,1,300.17,234.06Z"/><polygon class="cls-2" points="306.88 450.71 310.95 397.46 327.91 400.04 332.98 420.47 329.21 450.71 306.88 450.71"/><path class="cls-4" d="M309,443.71s1.82,5.05,6.36,5.43,5.76,4.84,1.66,6S302.36,451,302.36,451l.29-6.57Z"/><path class="cls-4" d="M321.65,339.84c-9.56,18.14-6.71,51.45-6.71,51.45l-51.35-1.48q-1.95-3.53-3.69-7.12c-17-34.64-21.23-73.41-18.7-95.08a40.71,40.71,0,0,1,3.32-13.29c7.59-14.84,50.93-14.91,50.93-14.91l13,2.24C361,283.15,331.21,321.69,321.65,339.84Z"/><path class="cls-7" d="M263.59,389.81l25.1-3.79A24,24,0,0,1,316,406.2a24.5,24.5,0,0,1,.14,6.05l-3.28,31.9H300.59l1.06-29.86a11.31,11.31,0,0,0-10.88-11.72,10.8,10.8,0,0,0-2.2.13C277.9,404.43,264.65,403.67,263.59,389.81Z"/><path class="cls-4" d="M334.56,443.71s1.81,5.05,6.37,5.43,5.75,4.84,1.64,6S327.91,451,327.91,451l.3-6.57Z"/><path class="cls-2" d="M305.37,388.39l-41.78,1.41-3.57-7-.12-.13c-17-34.65-21.23-73.42-18.7-95.09L268,279.66s14.23,12.48,11.38,26.25c-.47,2.23-.94,4.92-1.47,7.87a78.65,78.65,0,0,0,18.44,64.37Z"/><path class="cls-7" d="M289.15,389.81,314.24,386a24,24,0,0,1,27.36,20.2,24.33,24.33,0,0,1,.15,6l-3.28,31.9H326.16l1.06-29.86a11.3,11.3,0,0,0-10.85-11.73,11.14,11.14,0,0,0-2.23.14C303.45,404.43,290.21,403.67,289.15,389.81Z"/><path class="cls-4" d="M270.28,264.52s-52.6-9.76-106.81-43.49l-8.22,10.46s56.54,59.78,103.34,67.91C278.86,303,296.51,273.11,270.28,264.52Z"/><path class="cls-5" d="M270.28,264.52s-52.6-9.76-106.81-43.49l-8.22,10.46s56.54,59.78,103.34,67.91C278.86,303,296.51,273.11,270.28,264.52Z"/><polygon class="cls-7" points="437.91 387.67 445.07 347.19 394.29 347.19 389.89 381.69 366.59 382.02 366.59 387.67 437.91 387.67"/><circle class="cls-8" cx="417.69" cy="366.59" r="5.08"/><path class="cls-1" d="M237.37,432.48v20.24c0,9.16-25.6,16.56-57.12,16.5s-57.07-7.53-57-16.7V432.28Z"/><path class="cls-1" d="M237.28,456.82v20.24c0,9.17-25.58,16.56-57.11,16.5s-57.08-7.52-57.06-16.69V456.63Z"/><path class="cls-2" d="M237.28,456.82v20.24c0,9.17-25.58,16.56-57.11,16.5s-57.08-7.52-57.06-16.69V456.63Z"/><ellipse class="cls-1" cx="179.7" cy="456.11" rx="16.46" ry="56.56" transform="translate(-276.73 635.01) rotate(-89.9)"/><path class="cls-2" d="M237.37,432.48v20.24c0,9.16-25.6,16.56-57.12,16.5s-57.07-7.53-57-16.7V432.28Z"/><path class="cls-1" d="M233.25,408.28v20.24c0,9.17-25.58,16.56-57.11,16.5s-57.08-7.53-57.06-16.69V408.09Z"/><path class="cls-1" d="M237.45,383.89v20.24c0,9.17-25.59,16.56-57.12,16.52s-57.07-7.54-57.06-16.71V383.7Z"/><ellipse class="cls-1" cx="179.74" cy="431.95" rx="16.46" ry="56.56" transform="translate(-252.52 610.93) rotate(-89.9)"/><path class="cls-2" d="M233.25,408.28v20.24c0,9.17-25.58,16.56-57.11,16.5s-57.08-7.53-57.06-16.69V408.09Z"/><ellipse class="cls-1" cx="175.66" cy="407.98" rx="16.46" ry="56.56" transform="translate(-232.62 582.92) rotate(-89.9)"/><path class="cls-2" d="M237.45,383.89v20.24c0,9.17-25.59,16.56-57.12,16.52s-57.07-7.54-57.06-16.71V383.7Z"/><circle class="cls-2" cx="235.2" cy="455.02" r="42.38"/><path class="cls-2" d="M207,412.53s-44.37,13.54-37.25,80.72c0,0,28.93,1,42.66-2.54C224.69,487.61,207,412.53,207,412.53Z"/><ellipse class="cls-1" cx="180.36" cy="383.81" rx="16.46" ry="57.1" transform="translate(-203.76 563.5) rotate(-89.9)"/><circle class="cls-1" cx="235.2" cy="455.02" r="42.38"/><circle class="cls-2" cx="235.2" cy="455.02" r="42.38"/><g class="cls-9"><circle class="cls-10" cx="237.27" cy="442.26" r="42.38"/></g><circle class="cls-1" cx="237.27" cy="442.26" r="42.38"/><path class="cls-8" d="M238.63,423.31c1.21,0,1.56.41,1.56,1.61v2.55a11.65,11.65,0,0,1,9.6,7.25c.62,1.24.37,1.92-1,2.55l-2.55,1.14c-1.2.58-1.78.31-2.45-.93a6.53,6.53,0,0,0-6.66-4c-4.43,0-6.47,1.3-6.47,4.27a4,4,0,0,0,3.59,3.5,31.92,31.92,0,0,0,3.76.58,23.78,23.78,0,0,1,6.93,1.34,9.56,9.56,0,0,1,3.07,1.67,10.08,10.08,0,0,1,2.76,7.3c0,5.67-3.8,9.54-10.53,10.53v2.7c0,1.2-.35,1.63-1.56,1.63h-2.82c-1.2,0-1.61-.43-1.61-1.63v-2.63a11.78,11.78,0,0,1-10.42-8A1.72,1.72,0,0,1,225,452.3l2.56-.93c1.29-.47,1.87-.16,2.45,1.14q1.72,4.42,7,4.43c4.78,0,7.19-1.48,7.19-4.59a3.23,3.23,0,0,0-2.25-3.24,17.8,17.8,0,0,0-5.16-1,23,23,0,0,1-7-1.47,10.08,10.08,0,0,1-2.95-1.73,9.49,9.49,0,0,1-2.82-7.09c0-5.62,3.54-9.37,10.22-10.26V425c0-1.2.41-1.61,1.61-1.61Z"/><path class="cls-11" d="M167.9,366.41s-12.27-3.35-14.94-14.76c0,0,19-3.85,19.56,15.78Z"/><path class="cls-12" d="M169.37,365.2s-8.57-13.55-1-26.22c0,0,14.47,9.17,8,26.25Z"/><path class="cls-4" d="M171.65,365.29s4.52-14.32,18.22-17c0,0,2.56,9.3-8.86,17.07Z"/><polygon class="cls-7" points="162.75 364.89 165.23 381.91 180.9 381.97 183.21 364.98 162.75 364.89"/><text class="cls-13" transform="translate(63.16 182.66)">mashti<tspan class="cls-14" x="307.19" y="0"> </tspan><tspan class="cls-8" x="336.47" y="0">pay</tspan></text></svg>